<?xml version="1.0" encoding="UTF-8"?>
<svg version="1.1" xmlns="http://www.w3.org/2000/svg" width="1519" height="1130">
<path d="M0 0 C501.27 0 1002.54 0 1519 0 C1519 372.9 1519 745.8 1519 1130 C1017.73 1130 516.46 1130 0 1130 C0 757.1 0 384.2 0 0 Z " fill="#484848" transform="translate(0,0)"/>
<path d="M0 0 C235.39523609 0 235.39523609 0 256.625 4.625 C257.83881348 4.88514893 259.05262695 5.14529785 260.30322266 5.41333008 C283.9008271 10.70672931 308.60404147 20.31448854 328 35 C328.52787109 35.3909082 329.05574219 35.78181641 329.59960938 36.18457031 C343.11442128 46.22347835 355.94540486 57.42981216 366 71 C366.6815918 71.90975586 366.6815918 71.90975586 367.37695312 72.83789062 C391.95190103 105.83113425 404.44669945 142.51241168 404.26074219 183.73413086 C404.25000227 186.56190355 404.26070979 189.38904307 404.2734375 192.21679688 C404.28572019 205.98569586 403.28342632 218.91721833 399.3125 232.1875 C399.05194824 233.07332764 398.79139648 233.95915527 398.52294922 234.87182617 C384.28668189 282.31901826 355.55930958 319.5894085 311.59863281 343.29492188 C280.15254443 359.47755278 245.5972906 367.22584659 210.27661133 367.11352539 C209.03626224 367.11364593 207.79591314 367.11376646 206.51797771 367.11389065 C203.86829231 367.1133972 201.21868722 367.11115437 198.5690155 367.10557556 C194.76910499 367.09802783 190.96922875 367.0954667 187.16931152 367.09460449 C178.05036957 367.089381 168.9314343 367.07541974 159.8125 367.0625 C139.414375 367.041875 119.01625 367.02125 98 367 C98 429.37 98 491.74 98 556 C65.66 556 33.32 556 0 556 C0 372.52 0 189.04 0 0 Z " fill="#FEFEFE" transform="translate(812,274)"/>
<path d="M0 0 C2.07808731 1.89806086 4.1380295 3.81471163 6.18676758 5.74438477 C4.64549407 9.45706571 2.37833524 11.72554175 -0.50073242 14.49438477 C-3.48895682 17.37572088 -6.32446654 20.30236193 -9.0234375 23.45239258 C-12.60224923 27.55984161 -16.37491956 31.41867969 -20.25073242 35.24438477 C-20.93449951 35.92436523 -21.6182666 36.6043457 -22.32275391 37.30493164 C-25.21061016 40.1766362 -28.10446318 43.04226914 -30.99780273 45.90844727 C-33.12588967 48.01831263 -35.25086159 50.13128122 -37.37573242 52.24438477 C-38.01760498 52.87795898 -38.65947754 53.5115332 -39.32080078 54.16430664 C-43.15392924 57.97693174 -46.7831446 61.90919889 -50.30580139 66.01086426 C-52.1964635 68.18509411 -54.19585406 70.2255569 -56.25073242 72.24438477 C-57.26973633 73.24985352 -57.26973633 73.24985352 -58.30932617 74.27563477 C-59.05375977 75.00266602 -59.05375977 75.00266602 -59.81323242 75.74438477 C-62.9571711 74.34630584 -65.09161332 72.68458234 -67.56323242 70.30688477 C-74.11889971 64.37454322 -81.42898076 59.5723466 -88.81323242 54.74438477 C-89.43504395 54.33510742 -90.05685547 53.92583008 -90.69750977 53.50415039 C-104.06085887 44.80377244 -118.35555399 38.75993348 -133.68823242 34.43188477 C-134.8871814 34.08637573 -134.8871814 34.08637573 -136.11035156 33.73388672 C-152.39511115 29.41337558 -169.06129249 28.22361981 -185.84228516 28.29833984 C-188.74673032 28.30687301 -191.64921228 28.27788195 -194.5534668 28.24633789 C-224.57528629 28.13540407 -258.03071286 34.89205089 -280.81323242 55.74438477 C-290.55086739 65.90335971 -293.99007628 75.59774024 -294.06323242 89.36938477 C-294.08385742 90.3168457 -294.10448242 91.26430664 -294.12573242 92.24047852 C-294.19275829 104.48945666 -290.08128254 115.80640075 -281.77416992 124.93579102 C-257.60286788 147.22924289 -221.2718299 154.53626642 -190.24536133 161.01831055 C-158.46800078 167.74087921 -126.71032534 174.64159715 -95.81323242 184.74438477 C-94.63196777 185.1246582 -93.45070313 185.50493164 -92.23364258 185.89672852 C-61.24633973 195.9231201 -33.24639672 208.94705628 -8.81323242 230.74438477 C-8.28117187 231.2184375 -7.74911133 231.69249023 -7.20092773 232.1809082 C14.94935165 252.27615835 29.31322994 280.41277952 34.18676758 309.74438477 C34.5212793 311.6219043 34.5212793 311.6219043 34.86254883 313.53735352 C37.47279836 330.67266508 37.24798815 348.69508685 34.18676758 365.74438477 C34.04239258 366.67508789 33.89801758 367.60579102 33.74926758 368.56469727 C27.27770711 408.20300513 5.14025777 440.96188276 -26.81323242 464.74438477 C-27.36269531 465.15946289 -27.9121582 465.57454102 -28.47827148 466.00219727 C-63.52548986 492.13481951 -108.28726206 502.38366292 -150.81323242 507.74438477 C-152.00783081 507.90233521 -152.00783081 507.90233521 -153.2265625 508.06347656 C-161.24924826 509.00964718 -169.30960442 508.94354367 -177.37573242 508.93188477 C-178.14779022 508.93128052 -178.91984802 508.93067627 -179.71530151 508.93005371 C-254.12159844 508.77274045 -322.57779493 485.90384006 -378.81323242 436.74438477 C-379.67303711 435.99672852 -380.5328418 435.24907227 -381.41870117 434.47875977 C-386.17520622 430.27428153 -390.74868562 425.90539029 -395.25073242 421.43188477 C-395.75934814 420.92794189 -396.26796387 420.42399902 -396.79199219 419.90478516 C-402.17495397 414.49833671 -402.17495397 414.49833671 -403.81323242 411.74438477 C-402.73424237 408.50741461 -402.23017142 408.04114084 -399.68823242 405.99438477 C-393.24126829 400.54196138 -387.41570136 394.42955365 -381.48461914 388.42993164 C-380.049061 386.9822113 -378.60215655 385.54575754 -377.15307617 384.11157227 C-374.70814957 381.6380739 -372.38900118 379.08017736 -370.06323242 376.49438477 C-364.02390373 369.8800273 -357.72847786 363.51638287 -351.41320801 357.16711426 C-350.26216318 356.00922718 -349.11283115 354.84963494 -347.96520996 353.68835449 C-346.33376796 352.03904269 -344.6956675 350.39665278 -343.05541992 348.75610352 C-342.30767807 347.99764381 -342.30767807 347.99764381 -341.54483032 347.22386169 C-338.04233527 343.74438477 -338.04233527 343.74438477 -335.81323242 343.74438477 C-335.81323242 344.40438477 -335.81323242 345.06438477 -335.81323242 345.74438477 C-335.15323242 345.74438477 -334.49323242 345.74438477 -333.81323242 345.74438477 C-332.64619178 347.15169848 -331.48280677 348.56218255 -330.33666992 349.98657227 C-327.49250565 353.26830027 -324.12376355 355.9481109 -320.81323242 358.74438477 C-319.8515918 359.58227539 -318.88995117 360.42016602 -317.89916992 361.28344727 C-290.17683394 385.3363978 -258.6222702 401.00137177 -222.93823242 409.36938477 C-222.07786377 409.57563477 -221.21749512 409.78188477 -220.33105469 409.99438477 C-206.55673926 413.1390075 -192.77896792 414.18437399 -178.68823242 414.18188477 C-177.91853119 414.18328461 -177.14882996 414.18468445 -176.35580444 414.18612671 C-141.36276509 414.13443566 -102.40944837 406.7428237 -76.48120117 381.56860352 C-63.5692267 367.90043727 -62.21474671 351.28365843 -62.68139648 333.46166992 C-63.30903201 320.52540433 -69.5505806 309.59784314 -78.81323242 300.74438477 C-106.36137811 277.66631555 -146.20597215 270.60041799 -180.31958008 262.91381836 C-189.46502935 260.85277146 -198.55091832 258.58114422 -207.63720703 256.2746582 C-213.78000669 254.72367503 -219.92580406 253.25982843 -226.12109375 251.93481445 C-280.16479596 240.31423936 -341.20290475 217.13579362 -372.5769043 168.77368164 C-378.41263148 159.1949762 -382.73046515 148.76537768 -386.18823242 138.11938477 C-386.41478516 137.42949463 -386.64133789 136.73960449 -386.87475586 136.02880859 C-390.91284935 122.74712439 -392.3167833 109.40593925 -392.2043457 95.58764648 C-392.18823507 93.24476975 -392.20432541 90.90361691 -392.22338867 88.56079102 C-392.27461528 52.25654463 -378.06044083 18.16463165 -352.68823242 -7.69311523 C-342.52974169 -17.79386204 -331.31090756 -26.23937656 -318.81323242 -33.25561523 C-318.0671875 -33.67842773 -317.32114258 -34.10124023 -316.55249023 -34.53686523 C-230.69034313 -82.72096373 -111.02434562 -76.10566818 0 0 Z " fill="#FDFDFD" transform="translate(691.813232421875,330.255615234375)"/>
<path d="M0 0 C20.13 -0.061875 40.26 -0.12375 61 -0.1875 C67.32800781 -0.21481201 73.65601563 -0.24212402 80.17578125 -0.27026367 C87.97460938 -0.28381348 87.97460938 -0.28381348 91.6394043 -0.28633118 C94.16871734 -0.29090184 96.69802433 -0.30137716 99.22729492 -0.31672668 C128.9781862 -0.48806413 157.33883244 3.12026055 179.66796875 24.640625 C180.43753906 25.41921875 181.20710938 26.1978125 182 27 C182.8559375 27.84304688 183.711875 28.68609375 184.59375 29.5546875 C203.09653627 48.35784368 207.54948723 71.30233452 207.36724854 96.79431152 C207.2214074 106.84967384 205.9077832 115.71378748 202 125 C201.72124023 125.68400879 201.44248047 126.36801758 201.15527344 127.07275391 C192.03622881 148.82011005 174.48031698 164.61042276 152.9375 173.91015625 C138.83945568 179.14068067 124.31211702 181.32544008 109.32495117 181.22705078 C108.11409757 181.22729185 106.90324396 181.22753292 105.65569782 181.2277813 C101.78471007 181.22630342 97.91392148 181.21114125 94.04296875 181.1953125 C91.63366793 181.19236733 89.22436583 181.19032981 86.81506348 181.18920898 C77.93918931 181.17877657 69.06334264 181.15085408 60.1875 181.125 C30.3946875 181.063125 30.3946875 181.063125 0 181 C0 121.27 0 61.54 0 0 Z " fill="#494A49" transform="translate(910,368)"/>
<path d="M0 0 C2.64 1.32 5.28 2.64 8 4 C7.67 4.99 7.34 5.98 7 7 C3.7 7 0.4 7 -3 7 C-3.33 6.01 -3.66 5.02 -4 4 C-2.68 2.68 -1.36 1.36 0 0 Z " fill="#525252" transform="translate(589,616)"/>
<path d="M0 0 C2.44413389 3.08269139 4.33109524 6.28471111 6.1875 9.75 C6.71730469 10.73484375 7.24710937 11.7196875 7.79296875 12.734375 C8.19128906 13.48203125 8.58960938 14.2296875 9 15 C7.68 15.33 6.36 15.66 5 16 C5 14.68 5 13.36 5 12 C3.09316578 9.548356 2.02015057 9.00671686 -1 8 C-0.67 5.36 -0.34 2.72 0 0 Z " fill="#4C4C4C" transform="translate(313,487)"/>
<path d="M0 0 C2 1 2 1 2.8125 3.3125 C3 6 3 6 1.75 8.3125 C0 10 0 10 -3 10 C-2.01 6.7 -1.02 3.4 0 0 Z " fill="#535353" transform="translate(1205,523)"/>
<path d="M0 0 C0.33 0.66 0.66 1.32 1 2 C0.01 2.66 -0.98 3.32 -2 4 C-1.67 4.66 -1.34 5.32 -1 6 C-3.31 6.66 -5.62 7.32 -8 8 C-8 7.34 -8 6.68 -8 6 C-8.66 5.67 -9.32 5.34 -10 5 C-6.7 3.35 -3.4 1.7 0 0 Z " fill="#535353" transform="translate(1124,616)"/>
<path d="M0 0 C2.0625 0.4375 2.0625 0.4375 4 1 C4.625 3.3125 4.625 3.3125 5 6 C4.01 7.485 4.01 7.485 3 9 C2.34 8.67 1.68 8.34 1 8 C1 6.02 1 4.04 1 2 C0.34 1.67 -0.32 1.34 -1 1 C-0.67 0.67 -0.34 0.34 0 0 Z " fill="#3C3C3C" transform="translate(378,689)"/>
<path d="M0 0 C-0.33 1.32 -0.66 2.64 -1 4 C-1.66 4 -2.32 4 -3 4 C-3.33 4.99 -3.66 5.98 -4 7 C-5.32 6.67 -6.64 6.34 -8 6 C-7.8125 4.125 -7.8125 4.125 -7 2 C-4.55683729 0.74709605 -2.75474605 0 0 0 Z " fill="#4F4F4F" transform="translate(1111,623)"/>
<path d="M0 0 C0.66 0.66 1.32 1.32 2 2 C1.34 2.66 0.68 3.32 0 4 C-0.69748583 5.31747324 -1.36959957 6.64914193 -2 8 C-3.32 6.35 -4.64 4.7 -6 3 C-4.125 1.9375 -4.125 1.9375 -2 1 C-1.34 1.33 -0.68 1.66 0 2 C0 1.34 0 0.68 0 0 Z " fill="#EBEDEC" transform="translate(346,520)"/>
<path d="M0 0 C0.99 0.33 1.98 0.66 3 1 C2.01 2.98 1.02 4.96 0 7 C-1.65 7 -3.3 7 -5 7 C-2.25 1.125 -2.25 1.125 0 0 Z " fill="#3E403F" transform="translate(646,806)"/>
<path d="M0 0 C3 3.625 3 3.625 3 7 C1.68 7.33 0.36 7.66 -1 8 C-1.66 6.35 -2.32 4.7 -3 3 C-2.01 2.01 -1.02 1.02 0 0 Z " fill="#515153" transform="translate(412,384)"/>
<path d="M0 0 C0.33 0.66 0.66 1.32 1 2 C1.66 2.33 2.32 2.66 3 3 C1.73608512 4.00873016 0.46359117 5.00671822 -0.8125 6 C-1.87404297 6.8353125 -1.87404297 6.8353125 -2.95703125 7.6875 C-5 9 -5 9 -8 9 C-7.50628906 8.51789062 -7.01257813 8.03578125 -6.50390625 7.5390625 C-5.86324219 6.90742187 -5.22257813 6.27578125 -4.5625 5.625 C-3.92441406 4.99851562 -3.28632812 4.37203125 -2.62890625 3.7265625 C-0.92117824 2.08276939 -0.92117824 2.08276939 0 0 Z " fill="#EDEDED" transform="translate(619,707)"/>
<path d="M0 0 C0.33 0.99 0.66 1.98 1 3 C-5.625 2.25 -5.625 2.25 -9 0 C-5.93109813 -1.53445094 -3.29905734 -0.54984289 0 0 Z " fill="#545454" transform="translate(599,513)"/>
<path d="M0 0 C-0.66 0 -1.32 0 -2 0 C-1.67 1.32 -1.34 2.64 -1 4 C-2.32 4.33 -3.64 4.66 -5 5 C-5.33 3.35 -5.66 1.7 -6 0 C-3.50907189 -1.24546405 -2.58919267 -0.7767578 0 0 Z " fill="#545454" transform="translate(621,820)"/>
<path d="M0 0 C2.49361571 1.20381448 4.68143083 2.45428722 7 4 C6.67 4.99 6.34 5.98 6 7 C5.01 6.34 4.02 5.68 3 5 C3 4.34 3 3.68 3 3 C1.68 2.67 0.36 2.34 -1 2 C-0.67 1.34 -0.34 0.68 0 0 Z " fill="#424242" transform="translate(318,772)"/>
<path d="M0 0 C0.99 1.32 1.98 2.64 3 4 C1.68 5.32 0.36 6.64 -1 8 C-1.93065133 5.39417629 -2.14917407 4.35801776 -1.0625 1.75 C-0.711875 1.1725 -0.36125 0.595 0 0 Z " fill="#5C5C5E" transform="translate(401,398)"/>
<path d="M0 0 C2.64 0.33 5.28 0.66 8 1 C5.64046906 3.35953094 4.22104383 3.49141413 1 4 C0.67 2.68 0.34 1.36 0 0 Z " fill="#414342" transform="translate(1127,298)"/>
<path d="M0 0 C-0.39803561 2.88575819 -0.79009069 3.82189513 -3.0625 5.75 C-3.701875 6.1625 -4.34125 6.575 -5 7 C-5 4 -5 4 -4 1 C-2 0 -2 0 0 0 Z " fill="#545454" transform="translate(313,714)"/>
<path d="M0 0 C1.5625 1.8125 1.5625 1.8125 3 4 C2.67 4.99 2.34 5.98 2 7 C1.01 7.33 0.02 7.66 -1 8 C-0.67 5.36 -0.34 2.72 0 0 Z " fill="#555555" transform="translate(313,487)"/>
<path d="M0 0 C1.32 0.99 2.64 1.98 4 3 C3.67 3.99 3.34 4.98 3 6 C1.35 5.67 -0.3 5.34 -2 5 C-2 4.34 -2 3.68 -2 3 C-1.34 3 -0.68 3 0 3 C0 2.01 0 1.02 0 0 Z " fill="#3F3F41" transform="translate(1098,403)"/>
<path d="M0 0 C0.66 0 1.32 0 2 0 C2.33 1.65 2.66 3.3 3 5 C2.01 5.33 1.02 5.66 0 6 C-0.66 5.01 -1.32 4.02 -2 3 C-1.34 2.01 -0.68 1.02 0 0 Z " fill="#3D3D3D" transform="translate(387,697)"/>
<path d="M0 0 C0 3.5678289 -0.71052256 4.37134071 -3 7 C-3.99 7.66 -4.98 8.32 -6 9 C-6 6 -6 6 -4.6875 4.39453125 C-4.130625 3.87246094 -3.57375 3.35039063 -3 2.8125 C-2.443125 2.28269531 -1.88625 1.75289062 -1.3125 1.20703125 C-0.6628125 0.60955078 -0.6628125 0.60955078 0 0 Z " fill="#565656" transform="translate(1168,583)"/>
<path d="M0 0 C0.99 0.66 1.98 1.32 3 2 C2.67 2.99 2.34 3.98 2 5 C0.35 4.67 -1.3 4.34 -3 4 C-3 3.34 -3 2.68 -3 2 C-2.01 1.34 -1.02 0.68 0 0 Z " fill="#545454" transform="translate(1078,528)"/>
<path d="M0 0 C0.66 0.33 1.32 0.66 2 1 C1.67 2.65 1.34 4.3 1 6 C-0.32 5.34 -1.64 4.68 -3 4 C-3 3.34 -3 2.68 -3 2 C-2.01 1.34 -1.02 0.68 0 0 Z " fill="#404040" transform="translate(363,297)"/>
<path d="M0 0 C1.98 0.495 1.98 0.495 4 1 C3.34 2.32 2.68 3.64 2 5 C1.01 4.67 0.02 4.34 -1 4 C-0.67 2.68 -0.34 1.36 0 0 Z " fill="#414141" transform="translate(346,676)"/>
<path d="M0 0 C0.66 0.99 1.32 1.98 2 3 C-0.97 5.475 -0.97 5.475 -4 8 C-4.66 7.67 -5.32 7.34 -6 7 C-4.02 4.69 -2.04 2.38 0 0 Z " fill="#5E5E5E" transform="translate(1180,569)"/>
<path d="M0 0 C1.5 1.375 1.5 1.375 3 3 C3 3.66 3 4.32 3 5 C1.68 5 0.36 5 -1 5 C-1 5.66 -1 6.32 -1 7 C-1.66 6.67 -2.32 6.34 -3 6 C-2.01 4.02 -1.02 2.04 0 0 Z " fill="#5A5A5A" transform="translate(1196,544)"/>
<path d="M0 0 C0.66 0 1.32 0 2 0 C2.33 0.99 2.66 1.98 3 3 C2.01 4.485 2.01 4.485 1 6 C0.34 6 -0.32 6 -1 6 C-1.33 5.01 -1.66 4.02 -2 3 C-1.34 2.01 -0.68 1.02 0 0 Z " fill="#4E4E4E" transform="translate(683,352)"/>
<path d="M0 0 C3.65316671 1.24976756 4.78065836 1.67098753 7 5 C3.47967572 5 2.5614657 4.29648649 0 2 C0 1.34 0 0.68 0 0 Z " fill="#4F4F4F" transform="translate(663,307)"/>
</svg>
